<?xml version="1.0" encoding="UTF-8" standalone="no"?>
<svg
   version="1.2"
   width="197.20741mm"
   height="88.501389mm"
   viewBox="0 0 19720.741 8850.1391"
   preserveAspectRatio="xMidYMid"
   fill-rule="evenodd"
   stroke-width="28.222"
   stroke-linejoin="round"
   xml:space="preserve"
   id="svg4168"
   sodipodi:docname="2.svg"
   inkscape:version="1.2.2 (732a01da63, 2022-12-09, custom)"
   xmlns:inkscape="http://www.inkscape.org/namespaces/inkscape"
   xmlns:sodipodi="http://sodipodi.sourceforge.net/DTD/sodipodi-0.dtd"
   xmlns="http://www.w3.org/2000/svg"
   xmlns:svg="http://www.w3.org/2000/svg"
   xmlns:ooo="http://xml.openoffice.org/svg/export"><sodipodi:namedview
   id="namedview4170"
   pagecolor="#ffffff"
   bordercolor="#000000"
   borderopacity="0.25"
   inkscape:showpageshadow="2"
   inkscape:pageopacity="0.0"
   inkscape:pagecheckerboard="0"
   inkscape:deskcolor="#d1d1d1"
   inkscape:document-units="mm"
   showgrid="false"
   inkscape:zoom="1.3498271"
   inkscape:cx="434.12968"
   inkscape:cy="202.98896"
   inkscape:window-width="1920"
   inkscape:window-height="1031"
   inkscape:window-x="0"
   inkscape:window-y="25"
   inkscape:window-maximized="1"
   inkscape:current-layer="layer3" />
 <defs
   class="ClipPathGroup"
   id="defs4110">
  <clipPath
   id="presentation_clip_path"
   clipPathUnits="userSpaceOnUse">
   <rect
   x="0"
   y="0"
   width="24580"
   height="14737"
   id="rect4104" />
  </clipPath>
  <clipPath
   id="presentation_clip_path_shrink"
   clipPathUnits="userSpaceOnUse">
   <rect
   x="24"
   y="14"
   width="24531"
   height="14708"
   id="rect4107" />
  </clipPath>
 </defs>
 <defs
   class="TextShapeIndex"
   id="defs4114">
  <g
   ooo:slide="id1"
   ooo:id-list="id3"
   id="g4112" />
 </defs>
 <defs
   class="EmbeddedBulletChars"
   id="defs4146">
  <g
   id="bullet-char-template-57356"
   transform="matrix(4.8828125e-4,0,0,-4.8828125e-4,0,0)">
   <path
   d="M 580,1141 1163,571 580,0 -4,571 Z"
   id="path4116" />
  </g>
  <g
   id="bullet-char-template-57354"
   transform="matrix(4.8828125e-4,0,0,-4.8828125e-4,0,0)">
   <path
   d="M 8,1128 H 1137 V 0 H 8 Z"
   id="path4119" />
  </g>
  <g
   id="bullet-char-template-10146"
   transform="matrix(4.8828125e-4,0,0,-4.8828125e-4,0,0)">
   <path
   d="M 174,0 602,739 174,1481 1456,739 Z M 1358,739 309,1346 659,739 Z"
   id="path4122" />
  </g>
  <g
   id="bullet-char-template-10132"
   transform="matrix(4.8828125e-4,0,0,-4.8828125e-4,0,0)">
   <path
   d="M 2015,739 1276,0 H 717 l 543,543 H 174 v 393 h 1086 l -543,545 h 557 z"
   id="path4125" />
  </g>
  <g
   id="bullet-char-template-10007"
   transform="matrix(4.8828125e-4,0,0,-4.8828125e-4,0,0)">
   <path
   d="m 0,-2 c -7,16 -16,29 -25,39 l 381,530 c -94,256 -141,385 -141,387 0,25 13,38 40,38 9,0 21,-2 34,-5 21,4 42,12 65,25 l 27,-13 111,-251 280,301 64,-25 24,25 c 21,-10 41,-24 62,-43 C 886,937 835,863 770,784 769,783 710,716 594,584 L 774,223 c 0,-27 -21,-55 -63,-84 l 16,-20 C 717,90 699,76 672,76 641,76 570,178 457,381 L 164,-76 c -22,-34 -53,-51 -92,-51 -42,0 -63,17 -64,51 -7,9 -10,24 -10,44 0,9 1,19 2,30 z"
   id="path4128" />
  </g>
  <g
   id="bullet-char-template-10004"
   transform="matrix(4.8828125e-4,0,0,-4.8828125e-4,0,0)">
   <path
   d="M 285,-33 C 182,-33 111,30 74,156 52,228 41,333 41,471 c 0,78 14,145 41,201 34,71 87,106 158,106 53,0 88,-31 106,-94 l 23,-176 c 8,-64 28,-97 59,-98 l 735,706 c 11,11 33,17 66,17 42,0 63,-15 63,-46 V 965 c 0,-36 -10,-64 -30,-84 L 442,47 C 390,-6 338,-33 285,-33 Z"
   id="path4131" />
  </g>
  <g
   id="bullet-char-template-9679"
   transform="matrix(4.8828125e-4,0,0,-4.8828125e-4,0,0)">
   <path
   d="M 813,0 C 632,0 489,54 383,161 276,268 223,411 223,592 c 0,181 53,324 160,431 106,107 249,161 430,161 179,0 323,-54 432,-161 108,-107 162,-251 162,-431 0,-180 -54,-324 -162,-431 C 1136,54 992,0 813,0 Z"
   id="path4134" />
  </g>
  <g
   id="bullet-char-template-8226"
   transform="matrix(4.8828125e-4,0,0,-4.8828125e-4,0,0)">
   <path
   d="m 346,457 c -73,0 -137,26 -191,78 -54,51 -81,114 -81,188 0,73 27,136 81,188 54,52 118,78 191,78 73,0 134,-26 185,-79 51,-51 77,-114 77,-187 0,-75 -25,-137 -76,-188 -50,-52 -112,-78 -186,-78 z"
   id="path4137" />
  </g>
  <g
   id="bullet-char-template-8211"
   transform="matrix(4.8828125e-4,0,0,-4.8828125e-4,0,0)">
   <path
   d="M -4,459 H 1135 V 606 H -4 Z"
   id="path4140" />
  </g>
  <g
   id="bullet-char-template-61548"
   transform="matrix(4.8828125e-4,0,0,-4.8828125e-4,0,0)">
   <path
   d="m 173,740 c 0,163 58,303 173,419 116,115 255,173 419,173 163,0 302,-58 418,-173 116,-116 174,-256 174,-419 0,-163 -58,-303 -174,-418 C 1067,206 928,148 765,148 601,148 462,206 346,322 231,437 173,577 173,740 Z"
   id="path4143" />
  </g>
 </defs>
 
 
<g
   inkscape:groupmode="layer"
   id="layer3"
   inkscape:label="Layer 1"
   transform="translate(-809,-2007)"><path
     fill="#000000"
     stroke="none"
     d="m 19488,10559 c -255,-386 -502,-603 -941,-826 -220,-113 -475,-242 -566,-289 -91,-46 -321,-125 -512,-175 -395,-104 -634,-207 -955,-413 -291,-185 -488,-270 -701,-299 -212,-31 -412,-96 -753,-247 -145,-65 -491,-176 -768,-247 -277,-72 -650,-187 -829,-257 -364,-143 -624,-218 -1242,-358 -516,-118 -793,-208 -833,-271 -16,-26 -30,-86 -30,-132 -1,-46 -39,-130 -86,-185 -46,-57 -90,-118 -97,-136 -13,-36 -3278,-1063 -3769,-1185 -165,-41 -808,-236 -1429,-433 -1357,-432 -1252,-402 -1252,-361 0,20 32,128 71,242 94,277 93,411 -2,411 -57,0 -111,-84 -260,-407 l -187,-401 -348,-106 c -65,-14 -110,-19 -114,-11 -14,35 79,398 225,874 140,458 155,622 55,622 -36,0 -81,-20 -100,-45 -93,-125 -494,-1080 -557,-1328 -51,-200 -68,-261 -124,-298 l -231,-70 c -1,0 -1,1 -2,1 -11,11 6,202 38,422 40,275 131,626 286,1105 125,386 227,737 227,779 0,57 -22,77 -88,77 -79,0 -122,-69 -419,-669 -240,-486 -366,-792 -459,-1115 -70,-244 -142,-458 -157,-473 -16,-16 -67,13 -114,64 -81,88 -86,115 -80,475 7,437 68,734 331,1597 202,665 214,763 90,763 -73,0 -118,-71 -357,-562 -369,-760 -365,-751 -511,-1258 -85,-296 -145,-447 -177,-447 -27,0 -87,57 -133,125 -77,114 -83,149 -62,392 35,407 109,726 358,1551 126,414 224,784 218,824 -7,49 -37,72 -98,72 -79,0 -120,-65 -395,-625 -169,-344 -358,-746 -420,-892 -163,-388 -420,-1306 -420,-1499 0,-227 90,-514 230,-735 115,-183 143,-205 1639,-1306 86,-64 402,-290 702,-501 504,-358 557,-386 709,-386 127,0 182,18 237,80 117,132 129,197 150,818 11,328 28,603 37,613 10,10 550,180 1200,378 650,199 1539,480 1975,626 707,236 1766,563 3310,1020 373,110 516,140 545,110 22,-22 73,-40 114,-40 41,0 121,-48 176,-108 56,-58 136,-106 178,-106 41,0 363,112 714,249 707,275 1027,370 1461,430 623,86 1056,189 1650,389 920,310 2005,755 2634,1080 307,159 884,456 1282,661 836,430 795,380 766,940 -14,271 -42,406 -142,677 -150,408 -408,971 -462,1008 -60,40 -178,31 -236,-18 -28,-25 -114,-139 -190,-255 z m 959,-1412 c 32,-476 61,-444 -766,-870 -397,-204 -974,-502 -1282,-660 -629,-325 -1713,-770 -2633,-1080 -594,-200 -1027,-302 -1650,-389 -413,-57 -736,-149 -1325,-376 -549,-212 -566,-213 -716,-47 -164,181 -403,790 -449,1147 -10,74 -1,182 19,240 41,120 133,155 744,288 497,107 764,185 1144,335 179,70 552,185 829,256 277,72 623,183 769,247 340,152 540,216 753,247 212,30 410,114 700,300 322,206 561,309 956,412 190,50 420,129 511,176 92,47 346,176 566,289 440,223 686,440 941,827 159,239 219,300 277,278 22,-9 116,-181 207,-382 270,-592 385,-942 405,-1238 z M 1837,7075 c -247,-821 -317,-1142 -345,-1584 -19,-302 -14,-334 65,-450 68,-101 107,-125 204,-125 h 119 l 126,446 c 84,295 221,645 406,1035 281,591 408,831 408,772 0,-17 -79,-290 -175,-607 -277,-912 -326,-1157 -331,-1670 -5,-432 -2,-455 80,-544 107,-116 239,-122 284,-12 19,44 84,257 146,473 77,269 216,604 444,1066 183,370 339,667 346,659 8,-8 -87,-327 -211,-710 -210,-649 -336,-1236 -336,-1564 0,-24 1,-42 3,-57 l -183,-56 -5,11 c -17,-7 -34,-16 -50,-27 l -1,-1 v 0 c -20,-14 -40,-30 -58,-49 -28,-30 -54,-66 -75,-107 -20,-39 -37,-84 -50,-132 -16,-64 -25,-134 -25,-206 0,-33 2,-67 6,-101 11,-107 41,-211 85,-301 22,-46 48,-88 77,-125 29,-38 61,-71 95,-97 33,-26 68,-46 103,-59 37,-14 74,-21 111,-21 4,0 8,0 13,0 39,2 77,12 113,29 35,17 68,41 98,73 22,22 41,49 59,78 15,24 28,51 39,79 l 389,113 c 4,-37 26,-78 67,-119 130,-132 238,-70 255,145 2,28 3,51 2,68 l 295,86 c -9,-111 -18,-299 -25,-507 -11,-327 -33,-628 -49,-667 -54,-130 -171,-232 -267,-232 -83,0 -592,337 -1341,887 -1495,1100 -1523,1123 -1639,1306 -122,193 -229,503 -229,664 0,107 273,1068 380,1338 143,358 749,1588 782,1588 19,0 28,-20 20,-44 -8,-25 -110,-358 -225,-742 z m 2968,-2457 -7,23 c 166,46 510,156 1250,392 621,198 1264,393 1429,434 165,41 1061,313 1993,603 931,291 1695,519 1698,508 3,-11 33,-140 66,-287 34,-148 91,-329 128,-402 37,-74 60,-135 53,-135 -15,0 -1058,-310 -2351,-700 C 8705,4947 8054,4739 7618,4594 7181,4448 6292,4167 5642,3968 5046,3785 4543,3627 4456,3595 l -2,6 -1130,-328 9,-31 -4,1 c -11,-27 -23,-53 -37,-76 -13,-23 -28,-43 -45,-60 -20,-22 -43,-39 -67,-50 -23,-11 -47,-18 -72,-19 -3,0 -5,0 -8,0 -25,0 -49,5 -73,14 -26,10 -51,24 -76,43 -27,22 -53,48 -76,78 -25,32 -47,68 -66,107 -39,80 -65,172 -75,266 -3,30 -5,60 -5,90 0,63 8,123 22,180 10,40 24,77 41,109 17,32 36,60 58,83 9,9 19,18 30,26 z M 3572,4498 c 31,137 138,432 238,655 101,223 214,475 252,560 119,265 110,137 -20,-285 -177,-582 -249,-881 -232,-1001 l -277,-84 c 12,38 24,87 39,155 z m 1035,413 c 105,219 181,366 170,326 -100,-340 -143,-494 -151,-563 l -156,-47 z M 4055,3311 c 0,-69 -69,-107 -113,-62 -20,20 -26,54 -13,76 4,7 10,13 16,18 l 64,19 c 25,-4 46,-22 46,-51 z m 7770,2640 c 57,-118 145,-258 195,-312 66,-71 76,-98 38,-98 -30,0 -91,39 -137,89 -45,49 -118,89 -162,89 -44,0 -90,15 -102,35 -12,20 -50,37 -84,37 -74,0 -191,239 -268,547 -55,223 -29,339 103,450 30,26 55,84 55,128 0,46 11,112 26,148 18,48 31,22 48,-95 13,-89 16,-173 8,-187 -23,-40 162,-588 280,-831 z"
     id="path4155" /></g></svg>
