<svg id="Layer_1" data-name="Layer 1" xmlns="http://www.w3.org/2000/svg" width="210.92" height="50" viewBox="0 0 210.92 50"><defs><style>.cls-1{fill:#fff;}.cls-2{fill:#0c234b;}.cls-3{fill:#ab0520;}</style></defs><title>UA_Logo_Reverse</title><path class="cls-1" d="M60.41,21.67a5.44,5.44,0,0,0,.22,1.81,2.71,2.71,0,0,0,.72,1.05H57a2.54,2.54,0,0,0,.73-1.05,5.44,5.44,0,0,0,.22-1.81V10.12H56.64a9,9,0,0,0-2.15.21,3,3,0,0,0-1.32.67L54,8.35H65.34L64.59,11a2,2,0,0,0-.93-.64,4.63,4.63,0,0,0-1.46-.2H60.41V21.67Z"/><path class="cls-1" d="M69.05,22a5,5,0,0,0,.19,1.61,2.26,2.26,0,0,0,.64.94H66a2.46,2.46,0,0,0,.64-.94A5,5,0,0,0,66.82,22V12.65A4.9,4.9,0,0,0,66.63,11a2.43,2.43,0,0,0-.64-.93h3.89a2.23,2.23,0,0,0-.64.93,4.9,4.9,0,0,0-.19,1.61v3.23H76.7V12.65A4.9,4.9,0,0,0,76.51,11a2.17,2.17,0,0,0-.65-.93h3.9a2.43,2.43,0,0,0-.64.93,4.9,4.9,0,0,0-.19,1.61V22a5,5,0,0,0,.19,1.61,2.26,2.26,0,0,0,.64.94h-3.9a2.19,2.19,0,0,0,.65-.94A5,5,0,0,0,76.7,22V17.55H69.05V22Z"/><path class="cls-1" d="M81.66,24.55a2.46,2.46,0,0,0,.64-.94A5,5,0,0,0,82.49,22V12.66A5,5,0,0,0,82.3,11a2.43,2.43,0,0,0-.64-.93h7.78v2.28a3.45,3.45,0,0,0-1.15-.61,5.13,5.13,0,0,0-1.44-.19,6.62,6.62,0,0,0-.94.07q-.52.08-1.17.21v4.06h3.49V18a1.39,1.39,0,0,0-.67-.41A6.58,6.58,0,0,0,86,17.5H84.74v5.18c.53.08,1,.14,1.46.18s.81.06,1.13.06a6.82,6.82,0,0,0,2-.29,7.75,7.75,0,0,0,1.89-.9l-1,2.82Z"/><path class="cls-1" d="M109.43,24.53V23.31a9.23,9.23,0,0,1-2.34,1.26,7.38,7.38,0,0,1-2.39.42,6.27,6.27,0,0,1-2.48-.47,5.06,5.06,0,0,1-1.87-1.39,4.45,4.45,0,0,1-.88-1.7,10,10,0,0,1-.27-2.6V11.25A5.71,5.71,0,0,0,99,9.45a2.62,2.62,0,0,0-.71-1h4.33a2.43,2.43,0,0,0-.71,1,5.71,5.71,0,0,0-.21,1.8v7.08a14.64,14.64,0,0,0,.15,2.46,3.08,3.08,0,0,0,.54,1.28,2.86,2.86,0,0,0,1.22.85,5.1,5.1,0,0,0,1.81.28,4.89,4.89,0,0,0,1.63-.26,3.93,3.93,0,0,0,1.32-.76,2.32,2.32,0,0,0,.72-1.08,6.25,6.25,0,0,0,.22-1.82v-8a5.75,5.75,0,0,0-.21-1.83,2.46,2.46,0,0,0-.72-1h4.37A2.5,2.5,0,0,0,112,9.48a5.75,5.75,0,0,0-.21,1.77V21.68a5.71,5.71,0,0,0,.21,1.8,2.74,2.74,0,0,0,.73,1.05Z"/><path class="cls-1" d="M128.58,10.11a2.25,2.25,0,0,0-.65.93,5.19,5.19,0,0,0-.19,1.61V24.89a2.64,2.64,0,0,1-1.41-.49,8.68,8.68,0,0,1-1.68-1.78l-7.34-9.4V22a5.42,5.42,0,0,0,.18,1.65,2.17,2.17,0,0,0,.64.91H114.9a2.36,2.36,0,0,0,.64-.94,5,5,0,0,0,.2-1.62V12.65a4.84,4.84,0,0,0-.2-1.61,2.33,2.33,0,0,0-.64-.93h2.89L126.2,21V12.65A4.9,4.9,0,0,0,126,11a2.33,2.33,0,0,0-.64-.93Z"/><path class="cls-1" d="M134,22a5,5,0,0,0,.19,1.62,2.28,2.28,0,0,0,.65.94h-3.9a2.38,2.38,0,0,0,.65-.94,5.37,5.37,0,0,0,.18-1.62V12.65a5.25,5.25,0,0,0-.18-1.61,2.35,2.35,0,0,0-.65-.93h3.9a2.25,2.25,0,0,0-.65.93,4.9,4.9,0,0,0-.19,1.61V22Z"/><path class="cls-1" d="M143.06,24.92a2.92,2.92,0,0,1-1.55-1.05,8,8,0,0,1-1.19-2.4l-2.88-8.42a14.31,14.31,0,0,0-.66-1.69,10.84,10.84,0,0,0-.7-1.25H139a4.26,4.26,0,0,0,.08.66,3.39,3.39,0,0,0,.13.57l3.46,10.33,3.27-8.6a4.81,4.81,0,0,0,.23-.8,3.37,3.37,0,0,0,.09-.73,1.5,1.5,0,0,0-.16-.62,5.06,5.06,0,0,0-.55-.82h3.26l-5.77,14.81Z"/><path class="cls-1" d="M149.82,24.55a2.26,2.26,0,0,0,.64-.94,5,5,0,0,0,.2-1.62V12.66a5,5,0,0,0-.2-1.62,2.23,2.23,0,0,0-.64-.93h7.78v2.28a3.31,3.31,0,0,0-1.14-.61,5.23,5.23,0,0,0-1.44-.19,6.51,6.51,0,0,0-.94.07c-.35.05-.74.12-1.18.21v4.06h3.49V18a1.34,1.34,0,0,0-.67-.41,6.52,6.52,0,0,0-1.54-.12H152.9v5.18c.54.08,1,.14,1.46.18s.82.06,1.14.06a6.8,6.8,0,0,0,2-.29,7.81,7.81,0,0,0,1.9-.9l-1,2.82Z"/><path class="cls-1" d="M163.49,22a5,5,0,0,0,.19,1.61,2.19,2.19,0,0,0,.65.94h-3.9a2.46,2.46,0,0,0,.64-.94,5,5,0,0,0,.19-1.61V12.65a4.94,4.94,0,0,0-.19-1.61,2.43,2.43,0,0,0-.64-.93h4.92a5.34,5.34,0,0,1,3.4,1,3.23,3.23,0,0,1,1.3,2.65,3.1,3.1,0,0,1-.78,2.09,6.4,6.4,0,0,1-2.42,1.6l3.7,5a11.35,11.35,0,0,0,.78.94c.31.34.66.68,1,1l-1.1.1h-.17a3,3,0,0,1-1.52-.41A3.85,3.85,0,0,1,168.35,23l-4.24-5.93a6.74,6.74,0,0,0,2.77-1.17,2.43,2.43,0,0,0,.87-1.93A2.28,2.28,0,0,0,167,12.2a2.8,2.8,0,0,0-2-.69,5.76,5.76,0,0,0-.66,0c-.26,0-.55.08-.88.15V22Z"/><path class="cls-1" d="M173.08,24.23l-.68-2.62a10.44,10.44,0,0,0,2.4,1.25,6.8,6.8,0,0,0,2.32.41,3.94,3.94,0,0,0,2.35-.64,2,2,0,0,0,.89-1.65,1.74,1.74,0,0,0-.1-.59,2,2,0,0,0-.26-.55,7.89,7.89,0,0,0-2.61-1.69l-.87-.43a9.85,9.85,0,0,1-2.85-2,3.14,3.14,0,0,1-.77-2.12,3.27,3.27,0,0,1,1.42-2.79,6.4,6.4,0,0,1,3.87-1,12.66,12.66,0,0,1,1.55.1,18.37,18.37,0,0,1,1.85.29v2.42a6.84,6.84,0,0,0-1.78-1,5.27,5.27,0,0,0-1.85-.33,3.27,3.27,0,0,0-2,.53,1.63,1.63,0,0,0-.74,1.38,1.86,1.86,0,0,0,.59,1.35,11.11,11.11,0,0,0,2.61,1.56l.35.16a14,14,0,0,1,2.57,1.48,3.42,3.42,0,0,1,1,1.22,3.31,3.31,0,0,1,.35,1.53A3.84,3.84,0,0,1,181,23.64a6.64,6.64,0,0,1-4.2,1.3,9.27,9.27,0,0,1-1.74-.18,16.47,16.47,0,0,1-2-.53Z"/><path class="cls-1" d="M187.71,22a5,5,0,0,0,.19,1.62,2.28,2.28,0,0,0,.65.94h-3.9a2.38,2.38,0,0,0,.65-.94,5.31,5.31,0,0,0,.19-1.62V12.65A5.19,5.19,0,0,0,185.3,11a2.35,2.35,0,0,0-.65-.93h3.9a2.25,2.25,0,0,0-.65.93,4.9,4.9,0,0,0-.19,1.61V22Z"/><path class="cls-1" d="M107.78,34.4l-2.35,6h4.66l-2.31-6Zm.27-5.17,1.29,3.13,4.89,12.24c.54,1.36,1,2.7,2.3,3.38v.08h-4.82V48c1.15-.52,1-.78.33-2.45l-1.27-3.36h-6l-1.22,3.36c-.49,1.34-.66,2,.47,2.45v.08H99.74V48c1.36-.68,1.76-2,2.28-3.38l6-15.27v-.1Z"/><path class="cls-1" d="M77.88,34.82A5.14,5.14,0,0,0,74,36.47a6,6,0,0,0-1.54,4.23A6.46,6.46,0,0,0,74,45.1a4.85,4.85,0,0,0,3.81,1.75,5.11,5.11,0,0,0,3.91-1.66A6,6,0,0,0,83.2,41a6.4,6.4,0,0,0-1.52-4.4,4.86,4.86,0,0,0-3.8-1.74ZM77.8,48.41a8.88,8.88,0,0,1-3.07-.53,7,7,0,0,1-4.14-4,7.74,7.74,0,0,1-.22-5.33,8,8,0,0,1,1.09-2.13,7.68,7.68,0,0,1,2.76-2.35,7.88,7.88,0,0,1,3.58-.82,9,9,0,0,1,3.1.52,7,7,0,0,1,2.47,1.52,6.9,6.9,0,0,1,1.69,2.46,7.94,7.94,0,0,1,.59,3.06,7.08,7.08,0,0,1-.66,3,8.22,8.22,0,0,1-1.84,2.56,7.33,7.33,0,0,1-2.43,1.52,8.27,8.27,0,0,1-2.92.52Z"/><path class="cls-1" d="M89.9,45.51a5.3,5.3,0,0,0,.18,1.61,2.38,2.38,0,0,0,.66.94H86.83a2.35,2.35,0,0,0,.65-.94,4.94,4.94,0,0,0,.19-1.61V36.17a5,5,0,0,0-.19-1.62,2.25,2.25,0,0,0-.65-.93h7.8V35.9a3.5,3.5,0,0,0-1.14-.61A4.9,4.9,0,0,0,92,35.1a8.51,8.51,0,0,0-1,.07,11,11,0,0,0-1.18.21v4.06h3.51v2.1a1.39,1.39,0,0,0-.67-.41A6.62,6.62,0,0,0,91.2,41H89.9v4.5Z"/><path class="cls-1" d="M120.63,45.51a5.19,5.19,0,0,0,.19,1.61,2.35,2.35,0,0,0,.65.94h-3.9a2.43,2.43,0,0,0,.64-.94,4.84,4.84,0,0,0,.2-1.61V36.16a4.89,4.89,0,0,0-.2-1.61,2.33,2.33,0,0,0-.64-.93h4.92a5.37,5.37,0,0,1,3.41,1,3.23,3.23,0,0,1,1.29,2.65,3.1,3.1,0,0,1-.78,2.09A6.2,6.2,0,0,1,124,41l3.7,5a10.12,10.12,0,0,0,.79.94c.31.33.65.68,1.05,1l-1.1.11h-.18a3,3,0,0,1-1.51-.42,3.74,3.74,0,0,1-1.25-1.13l-4.23-5.93A6.69,6.69,0,0,0,124,39.41a2.42,2.42,0,0,0,.87-1.92,2.29,2.29,0,0,0-.75-1.78,2.78,2.78,0,0,0-2-.69,6.06,6.06,0,0,0-.67,0c-.26,0-.55.07-.88.14v10.3Z"/><path class="cls-1" d="M133.81,45.51a4.9,4.9,0,0,0,.19,1.61,2.25,2.25,0,0,0,.65.94h-3.9a2.32,2.32,0,0,0,.64-.94,4.9,4.9,0,0,0,.19-1.61V36.16a4.9,4.9,0,0,0-.19-1.61,2.23,2.23,0,0,0-.64-.93h3.9a2.17,2.17,0,0,0-.65.93,4.9,4.9,0,0,0-.19,1.61v9.35Z"/><path class="cls-1" d="M148.24,45.36l-1,2.7H136.11l7.57-12.58a15.6,15.6,0,0,0-1.6-.32,10.22,10.22,0,0,0-1.4-.11,6.81,6.81,0,0,0-1.81.24,7.47,7.47,0,0,0-1.79.74l1-2.41h9.23L139.72,46.2c.84.09,1.55.16,2.12.2s1.07.07,1.49.07a11.82,11.82,0,0,0,2.69-.28,8.64,8.64,0,0,0,2.22-.83Z"/><path class="cls-1" d="M156.51,34.82a5.14,5.14,0,0,0-3.92,1.65,6,6,0,0,0-1.54,4.23,6.46,6.46,0,0,0,1.53,4.4,4.82,4.82,0,0,0,3.81,1.75,5.09,5.09,0,0,0,3.9-1.66A5.94,5.94,0,0,0,161.83,41a6.45,6.45,0,0,0-1.52-4.4,4.85,4.85,0,0,0-3.8-1.74Zm-.08,13.59a8.88,8.88,0,0,1-3.07-.53,7.11,7.11,0,0,1-2.47-1.51,7.26,7.26,0,0,1-1.67-2.45,7.74,7.74,0,0,1-.22-5.33,7.72,7.72,0,0,1,3.85-4.48,7.88,7.88,0,0,1,3.58-.82,9,9,0,0,1,3.1.52A7,7,0,0,1,162,35.33a6.9,6.9,0,0,1,1.69,2.46,7.94,7.94,0,0,1,.58,3.06,7.06,7.06,0,0,1-.65,3,8.22,8.22,0,0,1-1.84,2.56,7.33,7.33,0,0,1-2.43,1.52,8.27,8.27,0,0,1-2.92.52Z"/><path class="cls-1" d="M179.11,33.62a2.25,2.25,0,0,0-.65.93,5.25,5.25,0,0,0-.18,1.61V48.39a2.64,2.64,0,0,1-1.42-.49,8.57,8.57,0,0,1-1.68-1.77l-7.34-9.4v8.78a5.34,5.34,0,0,0,.18,1.64,2.2,2.2,0,0,0,.64.91h-3.23a2.43,2.43,0,0,0,.64-.94,4.84,4.84,0,0,0,.2-1.61V36.16a4.84,4.84,0,0,0-.2-1.61,2.33,2.33,0,0,0-.64-.93h2.88l8.43,10.85V36.16a4.84,4.84,0,0,0-.2-1.61,2.33,2.33,0,0,0-.64-.93Z"/><path class="cls-1" d="M184.36,41.21h4.19l-2-5.58-2.18,5.58Zm-1.92,4.9a1.56,1.56,0,0,0-.14.45,2.61,2.61,0,0,0-.05.48.89.89,0,0,0,.15.46,3.06,3.06,0,0,0,.48.56h-3.36a2.9,2.9,0,0,0,.75-.8,7.83,7.83,0,0,0,.68-1.39l4-10.31a3.18,3.18,0,0,0,.19-.57,2.33,2.33,0,0,0,.06-.49.88.88,0,0,0-.12-.46,1.6,1.6,0,0,0-.38-.42h3.23l4.53,12.11a6.3,6.3,0,0,0,.68,1.33,5.8,5.8,0,0,0,.94,1H190l.05-.05c.38-.4.57-.7.57-.88a2.94,2.94,0,0,0-.25-1l-.05-.15-1.22-3.34h-5.3l-1.36,3.45Z"/><path class="cls-1" d="M201.54,10.09l3.71,6.29,2.49-4.1a4.3,4.3,0,0,0,.34-.68,1.47,1.47,0,0,0,.12-.52,1,1,0,0,0-.15-.5,1.88,1.88,0,0,0-.46-.49h3.33L206,18V22a5,5,0,0,0,.19,1.62,2.29,2.29,0,0,0,.64.94H203a2.14,2.14,0,0,0,.65-.94,5.31,5.31,0,0,0,.19-1.62V18l-3.34-5.51a1.51,1.51,0,0,0-.91-.69,5.27,5.27,0,0,0-1.46-.13h-1.59V22a5,5,0,0,0,.19,1.62,2.22,2.22,0,0,0,.65.94h-3.91a2.22,2.22,0,0,0,.65-.94,5.31,5.31,0,0,0,.19-1.62V11.67h-1.14a7.78,7.78,0,0,0-1.93.19,2.59,2.59,0,0,0-1.18.6l.71-2.37Z"/><polygon class="cls-1" points="43.63 0.01 43.63 16.24 41.99 16.23 48.54 33.74 54.16 33.75 54.16 50 0 50 0 33.77 5.58 33.78 12.19 16.22 10.51 16.23 10.52 0 43.63 0.01 43.63 0.01"/><polyline class="cls-2" points="27.08 6.03 37.54 6.03 37.54 10.21 33.2 10.21 44.62 39.66 48 39.66 48 43.99 33.84 43.99 33.84 39.78 29.86 39.78 29.86 48.04 52.22 48.04 52.22 35.72 47.2 35.73 39.15 14.28 41.68 14.28 41.68 1.96 27.08 1.96 27.08 1.96 12.48 1.96 12.48 14.28 15.01 14.28 6.97 35.7 1.95 35.72 1.95 48.04 24.3 48.04 24.3 39.78 20.32 39.78 20.32 43.99 6.16 43.99 6.16 39.66 9.54 39.66 20.97 10.21 16.62 10.21 16.62 6.03 27.08 6.03"/><path class="cls-1" d="M58.68,44.46a2.08,2.08,0,0,1,0,2.94,2.2,2.2,0,0,1-3,0,2.08,2.08,0,0,1,0-2.94,2.17,2.17,0,0,1,3,0Zm-.3.25a1.69,1.69,0,0,0-2.4,0,1.76,1.76,0,0,0,0,2.44,1.71,1.71,0,0,0,2.4,0,1.76,1.76,0,0,0,0-2.44Zm-2.11,0h.95a.94.94,0,0,1,.61.18.55.55,0,0,1,.22.47.63.63,0,0,1-.22.52.9.9,0,0,1-.42.18l.68,1h-.43l-.62-1h-.4v1h-.37V44.73Zm.37,1h.51a.66.66,0,0,0,.39-.09.35.35,0,0,0,.12-.3.3.3,0,0,0-.12-.26.76.76,0,0,0-.39-.08h-.51v.73Z"/><path class="cls-3" d="M27.07,6.06l11.6,30.09s1.49,3.66,3.9,3.66H34.13s.42.06.84-.65a1.35,1.35,0,0,0,0-1L32.4,31.44H21.77l-2.62,6.72a1.4,1.4,0,0,0,0,1c.42.71.85.65.85.65H11.59c2.41,0,3.9-3.66,3.9-3.66L27.07,6.06m0,22.19h4.09L27.07,17.7,23,28.25Z"/></svg>