<svg xmlns="http://www.w3.org/2000/svg" viewBox="0 0 29.673 29.676"><g id="Color"><polygon points="16.538 17.931 7.234 17.563 17.26 7.537 22.096 12.373 16.538 17.931" style="fill:#fff"/></g><g id="Black"><path d="M22.663,12.255l-5.3-5.327L6.759,17.582a7.882,7.882,0,0,0-1.95,3.262l-.015.048a7.871,7.871,0,0,1-1.95,3.262L.529,26.48,3.18,29.144l2.291-2.3a7.829,7.829,0,0,1,3.307-1.978h0a7.815,7.815,0,0,0,3.307-1.978Z" style="fill:none;stroke:#000;stroke-miterlimit:10;stroke-width:0.75px"/><path d="M26.679,7.3l2.035-2.035a3.127,3.127,0,0,0,.309-4.153A3.036,3.036,0,0,0,24.532.883L22.4,3.019a2.4,2.4,0,0,1-3.392,0l-.352-.352a.738.738,0,0,0-1.043,0L15.226,5.051a.736.736,0,0,0,0,1.042l8.379,8.379a.738.738,0,0,0,1.042,0l2.384-2.384a.738.738,0,0,0,0-1.042l-.353-.353A2.4,2.4,0,0,1,26.679,7.3Z"/></g></svg>